<svg xmlns="http://www.w3.org/2000/svg" version="1.1" viewBox="0 0 194 186">
  <style>
    svg * {
      transition: fill .1s ease-out, opacity .1s ease-out;
    }
    @media all and (max-width: 250px) {
      #curved_bg { 
        opacity: 0; 
      }
      #secondary_content, #primary_content { 
        fill: #195463; 
      }
    }
    @media all and (max-width: 200px) {
      #secondary_content {
        opacity: 0;
      }
    }
    @media all and (max-width: 150px) {
      #background1, #background2 {
        opacity: 0;
      }
    }
  </style>
  <path id="curved_bg" fill="#195463" />
  <g id="primary_content" transform="translate(0.000000,490.000000) scale(0.100000,-0.100000)" fill="#000000" stroke="none">
  <path id="car1" d="M0 2450 l0 -2450 3680 0 3680 0 0 1688 c0 1676 -1 1688 -20 1688 -11
  0 -20 -4 -20 -9 0 -5 -7 -4 -15 3 -8 7 -15 8 -15 3 0 -19 -30 -9 -36 11 -4 12
  -12 24 -18 28 -7 5 -12 62 -14 160 -2 139 -1 151 12 128 9 -14 16 -38 17 -55
  2 -24 3 -21 9 15 6 39 7 41 8 12 2 -26 8 -35 31 -45 l29 -12 -24 -12 c-20 -9
  -24 -8 -25 5 0 11 -2 13 -6 4 -7 -18 16 -42 41 -42 15 0 26 -9 33 -27 8 -21
  11 93 12 443 1 413 -1 473 -14 478 -8 3 -45 8 -80 12 -36 4 -68 11 -71 15 -3
  5 8 6 23 4 15 -3 54 -9 86 -14 l57 -8 0 214 0 213 -3680 0 -3680 0 0 -2450z
  m4057 1905 c-3 -7 2 -19 10 -27 15 -11 16 -11 10 5 -11 28 0 19 18 -15 10 -18
  20 -65 22 -105 6 -77 18 -98 62 -105 31 -4 40 -41 25 -103 -7 -27 -6 -29 9
  -16 15 12 17 11 18 -5 1 -15 2 -14 7 4 10 32 25 29 35 -7 10 -39 18 -39 61 -1
  39 35 45 31 38 -23 -3 -27 -8 -37 -18 -33 -8 3 -14 4 -14 2 0 -3 -3 -12 -7
  -22 -5 -14 -2 -16 15 -12 17 5 23 -2 36 -43 9 -26 16 -57 16 -69 0 -12 4 -19
  9 -15 6 3 14 -3 20 -12 20 -36 24 0 13 104 -16 141 -15 178 3 193 11 9 19 9
  36 -3 12 -9 27 -13 35 -10 21 8 41 -44 26 -68 -21 -33 -15 -59 13 -59 16 0 25
  6 25 15 0 27 17 16 31 -21 l14 -35 43 37 c32 27 46 34 55 25 18 -18 47 -13 56
  10 7 21 8 21 29 -6 12 -15 22 -34 22 -41 0 -24 17 -15 38 19 12 21 16 39 11
  48 -10 18 5 44 20 35 6 -4 11 -17 11 -30 0 -14 9 -27 24 -34 21 -9 25 -8 30
  12 3 12 3 39 1 60 -4 27 -2 37 7 34 7 -3 14 -19 16 -37 3 -24 7 -31 18 -27 23
  9 57 -13 51 -33 -2 -10 4 -29 14 -42 10 -13 19 -38 19 -55 0 -37 19 -57 40
  -44 12 8 12 11 -2 27 -8 10 -13 23 -11 30 6 15 48 -26 49 -48 1 -9 4 -28 8
  -42 5 -22 3 -26 -16 -25 -13 1 -33 10 -45 21 -27 24 -35 11 -30 -41 4 -37 11
  -47 27 -37 8 5 8 10 0 20 -13 15 18 26 50 18 22 -6 22 -6 25 -43 1 -14 5 -40
  9 -57 5 -22 4 -33 -3 -33 -6 0 -11 -8 -11 -17 0 -15 -1 -15 -13 1 -8 11 -20
  17 -27 14 -10 -3 -8 -10 8 -26 12 -12 22 -24 22 -27 0 -8 -74 -3 -92 7 -12 5
  -18 5 -18 -2 0 -5 7 -10 16 -10 11 0 13 -6 9 -19 -11 -35 49 -51 73 -19 7 9
  19 15 27 12 21 -8 18 -16 -11 -37 -20 -15 -30 -17 -55 -8 -24 8 -34 8 -46 -4
  -8 -8 -11 -20 -7 -27 5 -8 2 -9 -10 -5 -9 4 -59 14 -109 23 -51 8 -99 19 -108
  24 -8 4 -22 5 -30 0 -8 -4 -61 -3 -119 3 -58 5 -271 10 -473 11 l-368 1 3 35
  c3 31 7 35 33 38 29 3 31 5 33 52 1 27 6 60 12 75 11 29 3 56 -10 35 -4 -7
  -10 3 -14 25 -7 33 -10 36 -32 31 -17 -5 -24 -2 -24 8 0 9 7 12 20 9 16 -4 19
  -2 14 11 -3 9 -10 13 -15 10 -5 -3 -9 -1 -9 5 0 5 -3 16 -6 24 -4 11 2 16 18
  19 20 3 23 8 23 50 0 25 4 50 8 54 11 11 9 62 -3 69 -5 3 -10 14 -10 25 0 13
  5 17 19 13 23 -6 39 16 20 28 -11 7 -9 9 6 9 22 1 65 32 65 48 0 5 -7 12 -15
  16 -11 4 -15 22 -15 70 0 65 0 65 33 74 29 8 32 12 31 45 -1 31 0 34 13 21 8
  -8 13 -21 10 -29z m531 33 c11 -15 52 -176 52 -208 0 -35 -19 -60 -45 -60 -33
  0 -41 20 -50 125 -4 50 -11 98 -17 108 -18 35 35 65 60 35z m-2417 -28 c12 0
  11 -2 -1 -10 -12 -8 -9 -10 13 -10 25 0 31 -8 28 -37 -1 -7 15 -15 35 -19 49
  -9 111 -68 94 -89 -7 -8 -16 -12 -21 -9 -5 3 -18 0 -29 -6 -17 -9 -28 -7 -55
  9 -37 21 -75 18 -75 -7 0 -12 -4 -11 -16 6 -10 14 -25 22 -45 22 -35 0 -36 10
  -13 102 18 70 31 84 55 62 8 -7 22 -14 30 -14z m301 -17 c9 -8 25 -12 36 -9
  11 4 24 0 31 -8 6 -8 19 -12 29 -9 23 6 47 -54 31 -74 -18 -21 -45 -15 -64 13
  -13 21 -19 23 -31 13 -13 -10 -17 -10 -25 2 -8 11 -9 10 -7 -6 2 -11 -4 -21
  -13 -23 -18 -3 -39 36 -39 73 0 13 -5 25 -12 27 -6 2 -8 10 -4 16 9 15 43 7
  68 -15z m114 -212 c2 -53 -1 -71 -12 -75 -8 -3 -14 -14 -14 -25 0 -11 -5 -23
  -11 -26 -6 -4 -9 -20 -7 -35 2 -21 -4 -34 -24 -49 -14 -12 -31 -21 -36 -21
  -25 0 -30 155 -6 164 8 3 14 19 14 36 0 49 40 117 62 104 4 -3 8 0 8 7 0 10 3
  10 12 1 6 -6 13 -43 14 -81z m2419 -706 c123 -34 307 -152 510 -328 117 -101
  171 -154 164 -161 -2 -3 -33 23 -69 56 -93 88 -230 195 -356 280 -179 119
  -162 114 -311 101 -166 -16 -340 -61 -457 -119 -50 -24 -100 -51 -110 -59 -22
  -17 -34 -83 -35 -197 -1 -56 3 -71 22 -93 21 -25 27 -26 187 -35 272 -16 330
  -21 330 -34 0 -8 2 -8 8 0 5 8 59 8 202 -2 107 -7 213 -15 235 -18 22 -3 51
  -5 65 -6 25 -1 25 -1 4 -13 -16 -9 -19 -17 -14 -32 9 -25 -4 -52 -41 -87 l-29
  -27 32 -6 c18 -3 71 -9 118 -15 84 -9 85 -9 125 20 40 28 84 33 126 16 25 -11
  46 18 54 73 l7 49 52 10 c52 11 136 0 136 -18 0 -4 12 -12 28 -19 69 -33 154
  -52 266 -60 126 -10 265 -39 246 -51 -7 -4 7 -12 32 -18 24 -7 61 -23 83 -36
  l40 -25 -38 -1 c-100 -1 -180 -100 -241 -301 -27 -89 -55 -258 -57 -336 0 -27
  -3 -42 -6 -35 -4 10 -8 10 -21 0 -15 -11 -14 -10 1 14 18 30 24 53 6 28 -9
  -12 -9 -11 -4 5 15 43 23 85 15 85 -5 0 -5 14 0 30 5 18 5 28 0 25 -5 -3 -12
  -21 -16 -41 -5 -30 -8 -33 -23 -22 -14 11 -14 11 -3 -3 12 -17 11 -57 -4 -80
  -5 -8 -10 -7 -16 5 -5 9 -13 16 -19 16 -5 0 -4 -9 3 -20 11 -17 10 -22 -2 -30
  -8 -5 -10 -10 -3 -10 6 0 9 -9 6 -22 -3 -17 -2 -19 5 -10 7 11 10 11 15 -2 3
  -8 1 -18 -5 -22 -11 -7 -28 13 -28 34 0 6 -5 12 -11 12 -5 0 -7 -4 -4 -10 3
  -5 -2 -10 -11 -10 -10 0 -15 3 -11 6 8 8 -34 48 -56 51 -12 2 -16 -1 -11 -9 5
  -8 2 -9 -9 -5 -9 3 -19 1 -23 -5 -4 -7 -3 -8 4 -4 11 6 18 -20 13 -47 -1 -5 3
  -6 8 -2 6 3 7 13 4 21 -5 14 -3 15 16 5 12 -7 19 -16 16 -20 -2 -5 9 -14 25
  -21 33 -14 36 -20 18 -38 -9 -9 -9 -12 0 -13 26 -3 31 -4 36 -10 3 -3 -14 -6
  -38 -8 -25 -1 -47 3 -51 10 -5 8 -1 9 14 4 15 -5 21 -2 21 9 0 9 -9 16 -20 16
  -14 0 -20 7 -20 22 0 16 -3 19 -11 11 -6 -6 -11 -24 -11 -39 0 -22 -2 -24 -10
  -10 -5 9 -6 25 -3 36 4 11 2 20 -4 20 -6 0 -8 7 -4 16 3 9 1 19 -6 23 -9 6 -9
  15 -1 37 6 15 17 60 25 99 7 38 17 79 21 90 5 14 4 17 -4 10 -6 -5 -27 -68
  -48 -140 -20 -71 -41 -138 -46 -148 -9 -18 -11 -18 -34 4 -16 15 -24 33 -23
  53 l0 31 16 -37 c8 -21 19 -38 25 -38 5 0 2 10 -6 22 -9 12 -16 34 -16 48 0
  20 45 212 116 495 6 24 8 26 11 9 2 -11 -5 -62 -17 -113 -19 -87 -19 -111 -1
  -111 4 0 17 48 30 108 13 59 27 116 31 127 31 72 22 80 -83 88 -43 3 -84 11
  -92 17 -12 10 -13 7 -6 -17 13 -44 -7 -66 -47 -52 -17 6 -41 9 -54 6 -18 -3
  -12 -7 25 -17 67 -20 32 -30 -52 -14 -36 6 -104 14 -151 17 -87 5 -72 0 65
  -21 l60 -9 -70 -1 c-38 0 -92 3 -120 9 -67 12 -210 21 -170 10 17 -5 50 -9 74
  -10 24 0 41 -4 38 -8 -8 -7 -86 -5 -160 4 -29 4 -80 7 -113 8 -43 0 -60 4 -57
  12 3 7 -5 10 -22 9 -20 -3 -25 0 -21 13 3 9 -8 0 -24 -19 -17 -19 -30 -38 -30
  -42 0 -4 -11 -7 -24 -6 -14 1 -22 6 -20 10 3 4 11 5 19 2 8 -3 19 4 26 18 l12
  23 -23 -20 -23 -20 7 25 c6 25 6 25 -5 3 -21 -40 -22 -38 -65 80 -22 61 -28
  56 -9 -8 9 -27 13 -58 9 -69 -4 -17 -3 -18 5 -6 6 8 11 10 11 4 0 -5 -7 -19
  -15 -30 -13 -16 -14 -16 -9 -1 3 9 1 17 -5 17 -6 0 -11 -4 -11 -10 0 -5 -5
  -10 -11 -10 -7 0 -5 11 5 28 l17 27 -23 -27 c-29 -34 -43 -36 -27 -5 6 12 8
  19 4 15 -5 -4 -13 -3 -20 2 -8 7 -15 3 -23 -15 -13 -28 -35 -35 -25 -8 6 15 5
  16 -9 3 -23 -22 -13 -30 40 -31 26 0 67 -4 92 -9 33 -6 20 -7 -50 -4 -57 3
  -101 1 -110 -5 -13 -9 -12 -11 5 -11 11 0 31 -7 45 -15 24 -13 24 -14 4 -15
  -13 0 -24 -8 -27 -20 -4 -17 0 -20 26 -21 l32 -1 -30 -7 c-24 -5 -27 -8 -15
  -16 12 -7 10 -10 -10 -15 -20 -6 -15 -9 30 -17 43 -8 48 -11 22 -12 -29 -1
  -32 -3 -22 -20 7 -14 6 -21 -3 -24 -7 -3 -5 -6 6 -6 19 -1 24 -21 5 -22 -10 0
  -10 -2 -1 -6 9 -3 10 -10 3 -23 -5 -10 -8 -27 -5 -37 3 -10 0 -7 -7 7 -7 14
  -17 30 -23 37 -5 7 -16 19 -23 28 -7 8 -10 20 -7 25 3 6 1 10 -4 10 -18 0 -12
  -54 10 -104 11 -26 19 -52 17 -58 -2 -6 -17 23 -32 63 -36 93 -78 171 -125
  228 -20 25 -30 41 -22 36 10 -5 12 -4 7 4 -4 6 -11 9 -16 6 -4 -3 -27 6 -51
  20 -48 26 -133 49 -123 33 4 -6 -8 -7 -31 -2 -26 5 -36 3 -31 -4 3 -6 2 -13
  -4 -17 -5 -3 -10 -1 -10 4 0 6 -5 11 -11 11 -5 0 -7 -5 -3 -11 4 -7 1 -10 -7
  -7 -8 3 -25 0 -39 -7 -26 -13 -69 -55 -56 -55 4 0 4 -5 0 -11 -5 -8 -9 -8 -14
  1 -5 7 -19 -7 -39 -40 -18 -29 -30 -54 -27 -57 2 -3 14 14 26 37 12 23 24 39
  27 36 9 -9 44 25 37 36 -3 5 0 8 8 6 7 -2 15 2 17 7 5 16 23 35 33 35 5 0 6
  -4 3 -10 -9 -14 8 -13 23 2 15 15 66 20 94 8 19 -7 15 -9 -25 -9 -26 -1 -65
  -10 -85 -20 -51 -26 -122 -104 -163 -179 -29 -53 -38 -62 -59 -60 -19 2 -24 8
  -22 23 2 11 9 23 15 27 7 5 3 8 -11 8 -19 0 -22 -4 -17 -20 4 -11 2 -20 -4
  -20 -6 0 -11 5 -11 11 0 5 -5 7 -10 4 -6 -4 -8 -10 -5 -15 8 -13 -122 -18
  -235 -8 -142 12 -208 26 -219 46 -5 9 -12 62 -15 117 -8 113 -35 347 -41 353
  -2 2 -13 1 -25 -3 -20 -6 -22 -12 -17 -48 3 -23 10 -43 16 -45 7 -2 9 -31 5
  -86 -4 -46 -3 -113 0 -149 7 -62 9 -67 32 -67 20 0 24 -5 24 -31 0 -82 51 -96
  385 -108 168 -6 170 -6 168 -28 -2 -12 -16 -44 -32 -70 -50 -82 -77 -184 -105
  -403 -2 -19 -3 9 -1 63 4 95 2 103 -27 98 -5 0 -8 5 -8 11 0 9 -3 9 -9 -1 -6
  -9 -6 -22 -1 -32 10 -18 4 -29 -18 -29 -8 0 -20 -7 -27 -16 -10 -14 -12 -12
  -12 15 0 21 5 31 16 32 9 0 11 3 5 5 -6 3 -9 17 -7 32 3 23 2 24 -6 7 -6 -12
  -10 -15 -10 -6 -2 33 -10 0 -21 -83 -10 -73 -10 -90 1 -98 11 -8 10 -9 -2 -5
  -15 5 -18 -7 -24 -84 -4 -50 -9 -88 -12 -85 -3 2 0 73 6 158 11 154 13 167 32
  290 l11 67 61 3 62 3 -85 13 c-47 7 -195 40 -328 73 -134 32 -245 59 -246 59
  -2 0 -1 -25 2 -55 5 -64 -5 -128 -19 -119 -7 4 -8 -8 -4 -34 3 -22 2 -43 -3
  -46 -5 -3 -10 35 -11 87 -2 103 -17 266 -25 275 -7 6 -138 3 -145 -4 -2 -2 14
  -21 36 -41 l40 -38 6 -115 c4 -63 4 -109 1 -103 -4 10 -9 9 -20 -2 -9 -8 -12
  -21 -9 -27 4 -7 -1 -4 -10 7 -9 11 -21 19 -26 18 -5 -2 -8 7 -6 20 1 13 -3 21
  -10 19 -15 -2 -17 14 -4 22 5 3 16 -10 26 -30 l17 -36 19 21 c11 12 17 26 13
  33 -5 7 -10 3 -16 -13 -7 -18 -11 -20 -18 -10 -4 8 -6 20 -3 28 3 8 1 13 -5
  11 -6 -2 -18 6 -26 17 -13 16 -15 17 -10 3 6 -17 -5 -23 -29 -19 -5 1 -7 -4
  -4 -11 2 -7 0 -21 -5 -30 -5 -10 -5 -18 0 -18 5 0 9 -6 10 -12 2 -36 13 -89
  23 -114 13 -34 21 -90 12 -81 -10 10 -52 116 -80 197 -13 41 -32 86 -40 99
  l-15 24 -215 -7 c-118 -3 -271 -11 -340 -17 -116 -10 -126 -9 -138 8 -7 10
  -11 21 -9 25 3 4 0 18 -6 30 -11 22 -11 22 8 -1 31 -38 35 -8 6 44 -16 28 -30
  43 -36 37 -12 -12 1 -44 15 -35 6 4 7 1 2 -7 -6 -10 -13 -7 -30 14 -24 30 -40
  25 -24 -8 9 -19 8 -19 -10 3 -12 13 -21 28 -21 35 0 7 4 6 9 -3 7 -11 10 -11
  17 0 4 7 3 14 -4 17 -19 6 -14 22 11 32 21 8 21 9 -5 9 -15 1 -31 -6 -36 -15
  -8 -15 -22 -16 -103 -10 -52 3 -119 10 -149 16 -30 6 -61 11 -67 12 -7 1 -13
  13 -13 27 0 18 3 22 9 13 4 -7 12 -12 17 -11 21 4 28 -2 14 -11 -9 -6 -10 -10
  -3 -10 15 0 21 9 27 43 9 49 17 67 28 61 6 -4 8 -2 5 3 -4 6 -18 8 -33 5 -24
  -4 -26 -3 -19 19 6 20 5 22 -6 12 -18 -18 -37 -16 -42 5 -3 11 -5 9 -6 -8 l-1
  -25 -15 29 c-18 34 -19 39 -4 30 8 -5 10 1 5 19 -7 29 9 81 23 73 5 -3 11 4
  14 16 4 12 9 20 12 16 3 -3 1 -17 -4 -32 -6 -14 -7 -26 -2 -26 5 0 14 14 20
  30 5 17 17 30 27 30 9 0 14 -6 11 -12 -13 -37 -14 -57 0 -25 14 33 20 37 52
  37 20 0 134 3 254 7 l217 6 -15 -36 c-18 -45 -19 -84 0 -117 7 -14 10 -29 5
  -35 -10 -12 21 -18 106 -19 50 -1 68 4 102 27 80 53 124 163 90 227 -19 35
  -75 70 -113 70 -39 0 -129 -44 -153 -75 -18 -23 -26 -24 -151 -27 -125 -3
  -131 -2 -132 17 0 18 -1 18 -9 -2 -9 -22 -15 -23 -120 -23 -101 0 -111 2 -106
  18 3 9 8 28 11 42 7 31 45 60 45 35 0 -8 5 -15 11 -15 6 0 8 10 5 23 -3 12 -3
  16 0 10 9 -20 23 -15 17 6 -3 14 -14 18 -41 18 l-37 -1 0 57 c0 31 -3 57 -7
  57 -5 0 -8 4 -8 9 0 5 21 10 48 10 26 0 130 0 232 0 243 1 436 -5 450 -14 13
  -8 193 -7 310 3 134 11 181 2 261 -53 l69 -47 76 7 c68 6 75 9 72 27 -5 31
  -45 56 -128 78 l-75 20 130 -3 c72 -2 117 0 100 4 -16 4 -57 14 -90 23 -33 8
  -91 24 -130 35 -38 12 -81 24 -95 26 -50 9 -165 44 -147 44 9 1 17 4 17 9 0 4
  71 4 157 0 87 -3 173 -6 192 -7 l34 -1 -23 -25 c-17 -18 -32 -24 -54 -22 -17
  2 -42 0 -56 -4 -24 -7 -24 -7 -2 -8 12 -1 25 -1 28 0 4 0 10 -5 14 -11 8 -13
  87 31 96 54 5 14 127 106 140 106 5 0 54 34 109 75 172 129 430 247 660 301
  91 22 117 23 290 20 137 -3 207 -9 250 -21z m-965 -110 c0 -11 -59 -33 -83
  -31 -15 2 -24 -1 -21 -6 3 -5 13 -7 21 -4 8 3 12 2 9 -3 -3 -5 -27 -8 -53 -7
  -36 2 -58 -4 -88 -23 -22 -14 -43 -30 -47 -35 -3 -5 -23 -10 -45 -12 -21 -2
  -40 -3 -43 -4 -3 0 2 -5 10 -10 12 -7 11 -9 -5 -8 -29 0 -147 -12 -168 -18
  -10 -3 -24 -1 -31 5 -16 13 -106 3 -106 -11 0 -6 -11 -7 -25 -4 -18 5 -27 2
  -32 -9 -4 -11 -13 -15 -29 -11 -12 3 -24 1 -26 -4 -2 -7 -29 -7 -82 0 -83 10
  -149 4 -111 -11 13 -5 14 -8 5 -8 -8 0 -23 4 -34 8 -13 5 14 16 95 39 169 47
  200 54 207 48 3 -3 -9 -9 -27 -12 l-33 -7 38 -13 c21 -7 40 -11 43 -8 3 3 -5
  7 -17 11 l-22 5 23 19 c28 22 275 71 364 73 34 0 55 4 45 7 -9 4 15 9 53 13
  39 4 99 13 135 20 83 17 80 17 80 11z m986 -45 c27 -18 50 -27 61 -23 12 5 15
  2 11 -9 -7 -16 1 -25 79 -80 51 -37 83 -62 131 -105 l24 -22 -38 -36 c-41 -37
  -62 -43 -82 -23 -9 9 -12 9 -12 0 0 -7 -16 -12 -40 -12 -22 0 -40 4 -40 9 0 5
  -16 4 -37 -2 -28 -9 -37 -9 -41 1 -2 7 -12 12 -22 12 -10 0 -21 4 -24 9 -7 10
  -82 9 -92 -2 -13 -13 -24 -7 -35 16 -9 21 -9 21 -6 -4 2 -15 -2 -34 -8 -43
  -11 -15 -13 -15 -19 -1 -3 9 -2 13 4 10 15 -9 12 23 -6 61 -9 19 -20 31 -26
  28 -5 -3 -3 -13 6 -23 9 -10 16 -26 16 -37 0 -12 -8 -4 -21 21 -12 22 -35 60
  -52 85 -17 25 -23 39 -13 31 9 -8 24 -28 32 -44 9 -16 18 -26 21 -23 9 8 -39
  75 -58 81 -9 3 -33 31 -54 61 -20 31 -32 53 -26 50 6 -4 11 -2 11 5 0 7 3 10
  6 7 3 -4 20 -2 37 4 27 8 137 20 246 27 13 0 43 -12 67 -29z m-3157 -512 c9
  -26 9 -29 -4 -18 -8 7 -15 19 -15 27 0 8 -4 12 -9 8 -6 -3 -4 -20 5 -41 8 -20
  13 -41 10 -47 -2 -7 -5 -4 -5 6 -1 9 -6 17 -12 17 -6 0 -9 -10 -7 -23 4 -18 0
  -23 -15 -22 -10 1 -23 8 -28 16 -7 11 -9 11 -9 1 0 -7 -5 -10 -12 -6 -7 4 -8
  3 -4 -5 4 -6 13 -8 19 -5 7 4 8 3 4 -2 -4 -4 -18 -9 -30 -9 -12 0 -32 -6 -44
  -13 -20 -11 -22 -10 -16 5 4 12 -1 9 -15 -7 l-21 -25 -1 24 0 24 -19 -22 c-13
  -15 -21 -18 -26 -10 -6 8 -10 7 -16 -2 -7 -12 -9 -12 -9 0 0 11 -3 11 -15 1
  -11 -9 -15 -9 -15 -1 0 7 -5 9 -12 4 -19 -11 -31 -12 -77 -3 -28 5 -41 4 -41
  -4 0 -6 -5 -4 -10 4 -9 13 -10 13 -11 0 -1 -8 -1 -22 0 -30 1 -11 -1 -11 -9 3
  -6 9 -8 23 -5 30 4 6 0 4 -8 -5 -8 -10 -17 -15 -20 -12 -3 3 -4 -5 -1 -18 3
  -18 1 -17 -10 7 -9 17 -16 23 -16 15 -2 -24 -19 21 -19 50 0 23 1 23 9 5 7
  -17 9 -17 9 -3 1 17 50 44 94 53 9 2 25 11 34 20 8 9 27 15 42 13 14 -1 32 1
  39 6 15 9 162 23 249 23 60 0 62 -1 72 -29z m-726 -64 c-5 -13 -3 -14 13 -6
  17 9 19 6 21 -36 3 -43 -1 -51 -42 -97 -25 -27 -48 -61 -52 -75 -3 -14 -10
  -30 -14 -36 -5 -6 -12 -31 -15 -55 -5 -36 -2 -49 16 -71 24 -32 46 -35 78 -12
  21 14 22 14 22 -10 0 -13 3 -32 6 -40 6 -17 -29 -17 -261 -1 -22 2 -47 4 -55
  4 -15 1 -66 98 -57 107 2 3 10 -9 17 -26 7 -16 17 -30 22 -30 7 0 6 5 -1 13
  -6 8 -8 17 -4 20 3 4 -2 17 -13 29 -10 12 -14 18 -7 15 7 -5 14 4 19 25 7 34
  55 151 59 146 8 -9 -24 -123 -34 -120 -8 2 -11 -21 -9 -78 2 -44 4 -76 6 -70
  2 5 13 5 27 0 15 -6 25 -5 27 1 2 5 13 11 25 12 12 0 20 3 18 5 -3 3 9 22 26
  43 28 36 48 86 30 74 -16 -9 -20 24 -8 66 7 23 23 49 36 57 23 16 24 16 17 -8
  -5 -20 -3 -19 9 5 17 36 19 65 4 65 -5 0 -8 4 -5 9 4 5 2 21 -3 34 -9 24 -8
  26 29 32 22 4 42 11 46 16 9 15 14 10 7 -7z m134 -221 c-6 -31 1 -55 14 -47 5
  3 9 1 9 -5 0 -5 -5 -11 -12 -13 -7 -3 -8 -10 -4 -17 7 -11 10 -11 17 0 7 11 9
  9 10 -6 l0 -20 9 20 c8 18 9 18 10 -5 1 -23 2 -23 10 -5 7 17 9 17 9 3 1 -11
  6 -15 16 -12 8 4 15 2 15 -4 0 -6 18 -9 43 -7 23 2 48 -2 56 -8 12 -10 14 -9
  8 6 -8 21 -3 22 17 1 10 -10 16 -11 16 -3 0 9 4 8 15 -1 12 -10 15 -10 15 1 0
  11 2 11 10 -1 6 -10 10 -11 10 -2 0 6 9 12 20 12 12 0 20 -7 20 -17 0 -15 2
  -14 15 3 13 17 14 17 15 2 0 -20 20 -25 21 -5 0 9 2 9 6 0 3 -9 11 -8 29 4 23
  15 24 14 17 -2 -4 -13 -3 -16 5 -11 7 4 15 1 18 -8 3 -8 12 -12 21 -9 13 5 13
  2 -1 -25 -9 -17 -20 -34 -26 -37 -13 -8 -13 -25 0 -25 6 0 10 7 10 15 0 8 5
  15 10 15 6 0 10 6 10 14 0 8 7 17 16 20 10 4 14 12 9 24 -4 11 -3 14 4 7 20
  -21 23 -61 5 -76 -16 -13 -16 -12 -5 9 7 13 10 26 7 29 -7 8 -27 -7 -21 -17 3
  -4 -2 -11 -11 -14 -10 -4 -14 -12 -10 -22 5 -13 1 -15 -19 -12 -15 3 -29 0
  -33 -8 -9 -17 -123 -32 -214 -28 -39 1 -65 -2 -62 -7 3 -6 -19 -7 -53 -4 l-58
  6 34 -15 c18 -9 51 -16 72 -16 24 0 39 -5 39 -12 0 -9 3 -8 10 2 18 29 22 -1
  10 -85 -7 -47 -10 -88 -7 -91 3 -3 10 33 17 80 l12 86 32 -1 c24 0 27 -2 12
  -8 -12 -5 -20 -18 -20 -34 -2 -36 21 -35 27 1 2 15 2 -39 -1 -121 l-5 -147
  269 2 269 3 3 25 c1 14 5 36 8 49 l5 24 15 -28 c8 -15 14 -34 14 -42 0 -8 5
  -11 10 -8 6 3 10 -2 11 -12 0 -10 6 0 14 22 12 38 13 39 13 10 1 -37 -9 -59
  -26 -63 -7 -1 -163 -3 -347 -4 -184 0 -354 -4 -379 -8 l-45 -7 -26 76 c-15 42
  -33 90 -41 106 -7 17 -24 59 -37 94 -13 35 -26 60 -29 55 -3 -5 -1 -20 5 -34
  5 -14 11 -31 13 -37 5 -24 -7 -13 -21 20 -14 31 -14 30 -9 -31 3 -35 9 -74 14
  -87 5 -14 5 -25 0 -27 -5 -2 0 -32 11 -68 27 -87 19 -111 -9 -30 -13 36 -33
  85 -44 109 -11 25 -21 56 -22 70 -3 24 -6 25 -82 28 -43 2 -117 8 -164 13 -47
  5 -91 10 -97 10 -7 0 -13 5 -13 11 0 9 118 6 180 -6 8 -2 50 -6 92 -10 71 -6
  77 -5 88 15 14 25 3 91 -11 69 -7 -11 -11 -8 -16 10 -6 23 -7 24 -14 5 -7 -16
  -8 -17 -8 -1 -1 19 -21 24 -21 5 -1 -7 -7 -2 -16 12 -14 23 -14 23 -9 3 4 -14
  2 -23 -4 -23 -6 0 -11 6 -12 13 0 8 -2 8 -6 -2 -5 -11 -7 -11 -14 0 -6 10 -9
  11 -9 2 0 -7 -11 -13 -24 -13 -14 0 -28 -5 -32 -12 -5 -8 -10 -6 -15 8 -7 19
  -8 19 -8 0 -1 -19 -2 -19 -14 -2 -8 11 -29 19 -60 21 -47 3 -79 15 -42 15 15
  0 16 3 7 12 -7 7 -12 16 -12 20 0 8 227 5 380 -6 57 -4 78 -3 65 3 -11 5 -39
  10 -61 10 l-42 1 -4 56 c-4 50 -2 58 24 86 30 33 36 51 14 42 -8 -3 -17 0 -21
  6 -4 7 1 14 14 17 17 4 19 9 10 24 -6 12 -15 17 -22 12 -9 -5 -9 -3 0 9 7 8 9
  19 5 23 -4 5 1 5 10 2 10 -3 20 -2 23 3 4 6 13 10 22 10 11 0 14 -7 10 -27z
  m560 -403 c17 -10 37 -28 43 -40 6 -12 16 -18 23 -13 9 5 9 3 0 -9 -7 -8 -10
  -18 -6 -21 9 -9 -10 -8 -22 1 -6 4 -17 20 -25 35 -23 45 -45 52 -147 44 -13
  -1 -23 -5 -23 -9 0 -4 -9 -17 -20 -28 -11 -11 -20 -32 -20 -47 l0 -28 20 30
  c18 27 27 23 21 -9 -1 -5 7 -18 17 -30 29 -32 35 -47 19 -40 -8 3 -17 14 -20
  25 -6 24 -27 25 -27 1 0 -22 42 -47 65 -38 15 5 14 9 -5 37 l-22 30 27 29 c19
  20 26 35 22 50 -4 16 -1 20 11 18 27 -5 25 -41 -3 -68 -14 -13 -25 -31 -25
  -41 0 -43 59 -42 71 2 l7 24 1 -25 c1 -15 6 -31 13 -38 18 -18 -56 -45 -110
  -39 -77 8 -123 61 -108 122 8 33 58 82 89 88 54 11 104 6 134 -13z m4933 -66
  c0 -8 5 -14 11 -14 8 0 8 -4 2 -12 -6 -7 -13 -58 -16 -113 -6 -116 -41 -227
  -82 -262 -41 -36 -56 -27 -20 12 40 42 62 104 74 210 4 44 8 81 7 82 -2 3
  -182 23 -208 23 -17 0 -28 -6 -30 -17 -3 -13 -6 -10 -10 9 -4 23 -2 27 16 25
  15 -1 21 4 21 18 0 27 23 33 128 34 72 1 87 4 87 17 0 8 5 12 10 9 6 -3 10
  -13 10 -21z m-3058 -29 c20 -8 40 -20 43 -25 4 -6 4 -38 0 -71 -6 -54 -9 -59
  -31 -59 -13 0 -24 5 -24 11 0 12 -38 49 -50 49 -12 0 -19 54 -8 67 6 8 5 19
  -2 34 -11 20 -10 21 12 16 13 -4 40 -13 60 -22z m2292 -179 c-12 -32 -61 -42
  -449 -90 -314 -39 -315 -39 -315 -28 0 12 13 17 115 47 114 33 356 87 500 112
  16 3 45 11 65 17 33 13 36 12 62 -17 14 -16 24 -35 22 -41z m-1138 -208 c-5
  -97 -12 -134 -39 -217 -34 -100 -91 -194 -114 -186 -6 2 -19 -3 -30 -11 -17
  -14 -16 -14 7 -4 24 11 24 10 5 -5 -24 -19 -107 -11 -150 16 l-30 19 30 0
  c111 1 192 158 201 390 3 69 7 141 10 160 l6 35 14 -25 c8 -15 13 -56 14 -102
  0 -63 -3 -79 -17 -88 -13 -8 -14 -13 -5 -16 6 -3 12 -18 12 -33 0 -42 -39
  -171 -68 -225 -29 -53 -86 -106 -114 -106 -10 0 -18 -4 -18 -10 0 -14 35 -12
  73 4 104 43 168 206 171 438 1 64 5 120 9 124 4 4 7 19 8 33 1 18 5 11 15 -24
  11 -37 14 -80 10 -167z m-425 126 c-29 -13 -59 -24 -65 -24 -18 0 -36 -22 -36
  -44 0 -26 161 -178 174 -165 5 5 12 60 14 124 3 63 8 112 13 109 5 -3 9 -15 9
  -27 0 -16 3 -18 9 -9 7 11 9 11 14 -2 3 -8 2 -18 -4 -22 -6 -3 -7 -19 -4 -35
  4 -18 3 -29 -4 -29 -6 0 -11 5 -11 12 0 6 -3 8 -7 4 -5 -4 0 -13 10 -21 14
  -10 15 -18 8 -38 -5 -14 -7 -28 -3 -31 3 -4 -4 -14 -17 -22 -21 -15 -21 -17
  -5 -42 9 -15 28 -40 43 -56 14 -16 20 -26 13 -22 -8 5 -16 -2 -22 -18 -16 -42
  -50 -31 -57 19 -2 16 -1 17 6 5 5 -8 7 -18 4 -24 -3 -5 -1 -6 5 -3 5 4 9 15 7
  25 -2 9 -4 23 -4 30 -1 7 -5 11 -10 8 -13 -8 -34 21 -26 35 5 7 0 7 -16 -1
  -24 -13 -24 -13 -5 9 18 20 13 27 -17 22 -5 -1 -6 3 -3 8 7 11 -72 84 -83 76
  -5 -2 -12 3 -15 13 -3 9 -13 28 -21 42 -20 34 -19 66 3 74 41 15 138 44 147
  44 6 1 -14 -10 -44 -24z m1889 -73 c0 -7 -98 -25 -247 -45 -13 -2 -23 1 -23 5
  0 5 -15 8 -32 8 l-33 -1 30 -8 c17 -4 27 -8 22 -9 -4 0 -193 -26 -419 -56
  -226 -31 -454 -62 -506 -71 -52 -8 -96 -13 -99 -10 -9 9 221 66 268 66 11 0
  18 -4 15 -8 -2 -4 127 9 287 30 161 20 316 40 345 44 79 10 62 23 -25 19 -62
  -4 -70 -3 -38 5 22 4 87 11 145 15 144 10 304 22 308 24 1 0 2 -3 2 -8z
  m-4212 -262 c261 -3 321 -21 114 -34 -57 -3 -110 -9 -118 -12 -12 -4 -13 -24
  -10 -109 5 -110 -7 -134 -18 -37 -14 121 -19 144 -33 158 -11 12 -43 15 -138
  15 -68 0 -126 4 -130 9 -8 15 24 20 95 16 36 -3 143 -5 238 -6z m1510 -179
  c45 -11 99 -29 120 -40 l37 -21 -45 5 c-25 3 -106 9 -181 12 l-137 7 10 29 c9
  26 14 28 61 28 29 0 89 -9 135 -20z"/>
  <path id="background1" d="M3135 2741 c-87 -23 -143 -68 -184 -146 -28 -52 -28 -138 -1 -182 35
  -59 121 -87 212 -71 74 13 127 47 178 114 36 46 44 65 46 104 3 64 -5 93 -23
  86 -10 -4 -13 -1 -9 12 16 51 -132 106 -219 83z m167 -130 c10 -9 20 -30 24
  -47 5 -26 0 -38 -27 -68 -18 -21 -38 -35 -45 -32 -8 3 -14 1 -14 -5 0 -17 -72
  -1 -94 21 -24 23 -25 70 -2 105 34 52 117 66 158 26z"/>
  </g><!-- /primary content -->
  <g id="secondary_content" transform="translate(0.000000,490.000000) scale(0.100000,-0.100000)" fill="#000000" stroke="none">
  <path id="car2" d="M0 2450 l0 -2450 3680 0 3680 0 0 1688 c0 1676 -1 1688 -20 1688 -11
  0 -20 -4 -20 -9 0 -5 -7 -4 -15 3 -8 7 -15 8 -15 3 0 -19 -30 -9 -36 11 -4 12
  -12 24 -18 28 -7 5 -12 62 -14 160 -2 139 -1 151 12 128 9 -14 16 -38 17 -55
  2 -24 3 -21 9 15 6 39 7 41 8 12 2 -26 8 -35 31 -45 l29 -12 -24 -12 c-20 -9
  -24 -8 -25 5 0 11 -2 13 -6 4 -7 -18 16 -42 41 -42 15 0 26 -9 33 -27 8 -21
  11 93 12 443 1 413 -1 473 -14 478 -8 3 -45 8 -80 12 -36 4 -68 11 -71 15 -3
  5 8 6 23 4 15 -3 54 -9 86 -14 l57 -8 0 214 0 213 -3680 0 -3680 0 0 -2450z
  m4057 1905 c-3 -7 2 -19 10 -27 15 -11 16 -11 10 5 -11 28 0 19 18 -15 10 -18
  20 -65 22 -105 6 -77 18 -98 62 -105 31 -4 40 -41 25 -103 -7 -27 -6 -29 9
  -16 15 12 17 11 18 -5 1 -15 2 -14 7 4 10 32 25 29 35 -7 10 -39 18 -39 61 -1
  39 35 45 31 38 -23 -3 -27 -8 -37 -18 -33 -8 3 -14 4 -14 2 0 -3 -3 -12 -7
  -22 -5 -14 -2 -16 15 -12 17 5 23 -2 36 -43 9 -26 16 -57 16 -69 0 -12 4 -19
  9 -15 6 3 14 -3 20 -12 20 -36 24 0 13 104 -16 141 -15 178 3 193 11 9 19 9
  36 -3 12 -9 27 -13 35 -10 21 8 41 -44 26 -68 -21 -33 -15 -59 13 -59 16 0 25
  6 25 15 0 27 17 16 31 -21 l14 -35 43 37 c32 27 46 34 55 25 18 -18 47 -13 56
  10 7 21 8 21 29 -6 12 -15 22 -34 22 -41 0 -24 17 -15 38 19 12 21 16 39 11
  48 -10 18 5 44 20 35 6 -4 11 -17 11 -30 0 -14 9 -27 24 -34 21 -9 25 -8 30
  12 3 12 3 39 1 60 -4 27 -2 37 7 34 7 -3 14 -19 16 -37 3 -24 7 -31 18 -27 23
  9 57 -13 51 -33 -2 -10 4 -29 14 -42 10 -13 19 -38 19 -55 0 -37 19 -57 40
  -44 12 8 12 11 -2 27 -8 10 -13 23 -11 30 6 15 48 -26 49 -48 1 -9 4 -28 8
  -42 5 -22 3 -26 -16 -25 -13 1 -33 10 -45 21 -27 24 -35 11 -30 -41 4 -37 11
  -47 27 -37 8 5 8 10 0 20 -13 15 18 26 50 18 22 -6 22 -6 25 -43 1 -14 5 -40
  9 -57 5 -22 4 -33 -3 -33 -6 0 -11 -8 -11 -17 0 -15 -1 -15 -13 1 -8 11 -20
  17 -27 14 -10 -3 -8 -10 8 -26 12 -12 22 -24 22 -27 0 -8 -74 -3 -92 7 -12 5
  -18 5 -18 -2 0 -5 7 -10 16 -10 11 0 13 -6 9 -19 -11 -35 49 -51 73 -19 7 9
  19 15 27 12 21 -8 18 -16 -11 -37 -20 -15 -30 -17 -55 -8 -24 8 -34 8 -46 -4
  -8 -8 -11 -20 -7 -27 5 -8 2 -9 -10 -5 -9 4 -59 14 -109 23 -51 8 -99 19 -108
  24 -8 4 -22 5 -30 0 -8 -4 -61 -3 -119 3 -58 5 -271 10 -473 11 l-368 1 3 35
  c3 31 7 35 33 38 29 3 31 5 33 52 1 27 6 60 12 75 11 29 3 56 -10 35 -4 -7
  -10 3 -14 25 -7 33 -10 36 -32 31 -17 -5 -24 -2 -24 8 0 9 7 12 20 9 16 -4 19
  -2 14 11 -3 9 -10 13 -15 10 -5 -3 -9 -1 -9 5 0 5 -3 16 -6 24 -4 11 2 16 18
  19 20 3 23 8 23 50 0 25 4 50 8 54 11 11 9 62 -3 69 -5 3 -10 14 -10 25 0 13
  5 17 19 13 23 -6 39 16 20 28 -11 7 -9 9 6 9 22 1 65 32 65 48 0 5 -7 12 -15
  16 -11 4 -15 22 -15 70 0 65 0 65 33 74 29 8 32 12 31 45 -1 31 0 34 13 21 8
  -8 13 -21 10 -29z m531 33 c11 -15 52 -176 52 -208 0 -35 -19 -60 -45 -60 -33
  0 -41 20 -50 125 -4 50 -11 98 -17 108 -18 35 35 65 60 35z m-2417 -28 c12 0
  11 -2 -1 -10 -12 -8 -9 -10 13 -10 25 0 31 -8 28 -37 -1 -7 15 -15 35 -19 49
  -9 111 -68 94 -89 -7 -8 -16 -12 -21 -9 -5 3 -18 0 -29 -6 -17 -9 -28 -7 -55
  9 -37 21 -75 18 -75 -7 0 -12 -4 -11 -16 6 -10 14 -25 22 -45 22 -35 0 -36 10
  -13 102 18 70 31 84 55 62 8 -7 22 -14 30 -14z m301 -17 c9 -8 25 -12 36 -9
  11 4 24 0 31 -8 6 -8 19 -12 29 -9 23 6 47 -54 31 -74 -18 -21 -45 -15 -64 13
  -13 21 -19 23 -31 13 -13 -10 -17 -10 -25 2 -8 11 -9 10 -7 -6 2 -11 -4 -21
  -13 -23 -18 -3 -39 36 -39 73 0 13 -5 25 -12 27 -6 2 -8 10 -4 16 9 15 43 7
  68 -15z m114 -212 c2 -53 -1 -71 -12 -75 -8 -3 -14 -14 -14 -25 0 -11 -5 -23
  -11 -26 -6 -4 -9 -20 -7 -35 2 -21 -4 -34 -24 -49 -14 -12 -31 -21 -36 -21
  -25 0 -30 155 -6 164 8 3 14 19 14 36 0 49 40 117 62 104 4 -3 8 0 8 7 0 10 3
  10 12 1 6 -6 13 -43 14 -81z m2419 -706 c123 -34 307 -152 510 -328 117 -101
  171 -154 164 -161 -2 -3 -33 23 -69 56 -93 88 -230 195 -356 280 -179 119
  -162 114 -311 101 -166 -16 -340 -61 -457 -119 -50 -24 -100 -51 -110 -59 -22
  -17 -34 -83 -35 -197 -1 -56 3 -71 22 -93 21 -25 27 -26 187 -35 272 -16 330
  -21 330 -34 0 -8 2 -8 8 0 5 8 59 8 202 -2 107 -7 213 -15 235 -18 22 -3 51
  -5 65 -6 25 -1 25 -1 4 -13 -16 -9 -19 -17 -14 -32 9 -25 -4 -52 -41 -87 l-29
  -27 32 -6 c18 -3 71 -9 118 -15 84 -9 85 -9 125 20 40 28 84 33 126 16 25 -11
  46 18 54 73 l7 49 52 10 c52 11 136 0 136 -18 0 -4 12 -12 28 -19 69 -33 154
  -52 266 -60 126 -10 265 -39 246 -51 -7 -4 7 -12 32 -18 24 -7 61 -23 83 -36
  l40 -25 -38 -1 c-100 -1 -180 -100 -241 -301 -27 -89 -55 -258 -57 -336 0 -27
  -3 -42 -6 -35 -4 10 -8 10 -21 0 -15 -11 -14 -10 1 14 18 30 24 53 6 28 -9
  -12 -9 -11 -4 5 15 43 23 85 15 85 -5 0 -5 14 0 30 5 18 5 28 0 25 -5 -3 -12
  -21 -16 -41 -5 -30 -8 -33 -23 -22 -14 11 -14 11 -3 -3 12 -17 11 -57 -4 -80
  -5 -8 -10 -7 -16 5 -5 9 -13 16 -19 16 -5 0 -4 -9 3 -20 11 -17 10 -22 -2 -30
  -8 -5 -10 -10 -3 -10 6 0 9 -9 6 -22 -3 -17 -2 -19 5 -10 7 11 10 11 15 -2 3
  -8 1 -18 -5 -22 -11 -7 -28 13 -28 34 0 6 -5 12 -11 12 -5 0 -7 -4 -4 -10 3
  -5 -2 -10 -11 -10 -10 0 -15 3 -11 6 8 8 -34 48 -56 51 -12 2 -16 -1 -11 -9 5
  -8 2 -9 -9 -5 -9 3 -19 1 -23 -5 -4 -7 -3 -8 4 -4 11 6 18 -20 13 -47 -1 -5 3
  -6 8 -2 6 3 7 13 4 21 -5 14 -3 15 16 5 12 -7 19 -16 16 -20 -2 -5 9 -14 25
  -21 33 -14 36 -20 18 -38 -9 -9 -9 -12 0 -13 26 -3 31 -4 36 -10 3 -3 -14 -6
  -38 -8 -25 -1 -47 3 -51 10 -5 8 -1 9 14 4 15 -5 21 -2 21 9 0 9 -9 16 -20 16
  -14 0 -20 7 -20 22 0 16 -3 19 -11 11 -6 -6 -11 -24 -11 -39 0 -22 -2 -24 -10
  -10 -5 9 -6 25 -3 36 4 11 2 20 -4 20 -6 0 -8 7 -4 16 3 9 1 19 -6 23 -9 6 -9
  15 -1 37 6 15 17 60 25 99 7 38 17 79 21 90 5 14 4 17 -4 10 -6 -5 -27 -68
  -48 -140 -20 -71 -41 -138 -46 -148 -9 -18 -11 -18 -34 4 -16 15 -24 33 -23
  53 l0 31 16 -37 c8 -21 19 -38 25 -38 5 0 2 10 -6 22 -9 12 -16 34 -16 48 0
  20 45 212 116 495 6 24 8 26 11 9 2 -11 -5 -62 -17 -113 -19 -87 -19 -111 -1
  -111 4 0 17 48 30 108 13 59 27 116 31 127 31 72 22 80 -83 88 -43 3 -84 11
  -92 17 -12 10 -13 7 -6 -17 13 -44 -7 -66 -47 -52 -17 6 -41 9 -54 6 -18 -3
  -12 -7 25 -17 67 -20 32 -30 -52 -14 -36 6 -104 14 -151 17 -87 5 -72 0 65
  -21 l60 -9 -70 -1 c-38 0 -92 3 -120 9 -67 12 -210 21 -170 10 17 -5 50 -9 74
  -10 24 0 41 -4 38 -8 -8 -7 -86 -5 -160 4 -29 4 -80 7 -113 8 -43 0 -60 4 -57
  12 3 7 -5 10 -22 9 -20 -3 -25 0 -21 13 3 9 -8 0 -24 -19 -17 -19 -30 -38 -30
  -42 0 -4 -11 -7 -24 -6 -14 1 -22 6 -20 10 3 4 11 5 19 2 8 -3 19 4 26 18 l12
  23 -23 -20 -23 -20 7 25 c6 25 6 25 -5 3 -21 -40 -22 -38 -65 80 -22 61 -28
  56 -9 -8 9 -27 13 -58 9 -69 -4 -17 -3 -18 5 -6 6 8 11 10 11 4 0 -5 -7 -19
  -15 -30 -13 -16 -14 -16 -9 -1 3 9 1 17 -5 17 -6 0 -11 -4 -11 -10 0 -5 -5
  -10 -11 -10 -7 0 -5 11 5 28 l17 27 -23 -27 c-29 -34 -43 -36 -27 -5 6 12 8
  19 4 15 -5 -4 -13 -3 -20 2 -8 7 -15 3 -23 -15 -13 -28 -35 -35 -25 -8 6 15 5
  16 -9 3 -23 -22 -13 -30 40 -31 26 0 67 -4 92 -9 33 -6 20 -7 -50 -4 -57 3
  -101 1 -110 -5 -13 -9 -12 -11 5 -11 11 0 31 -7 45 -15 24 -13 24 -14 4 -15
  -13 0 -24 -8 -27 -20 -4 -17 0 -20 26 -21 l32 -1 -30 -7 c-24 -5 -27 -8 -15
  -16 12 -7 10 -10 -10 -15 -20 -6 -15 -9 30 -17 43 -8 48 -11 22 -12 -29 -1
  -32 -3 -22 -20 7 -14 6 -21 -3 -24 -7 -3 -5 -6 6 -6 19 -1 24 -21 5 -22 -10 0
  -10 -2 -1 -6 9 -3 10 -10 3 -23 -5 -10 -8 -27 -5 -37 3 -10 0 -7 -7 7 -7 14
  -17 30 -23 37 -5 7 -16 19 -23 28 -7 8 -10 20 -7 25 3 6 1 10 -4 10 -18 0 -12
  -54 10 -104 11 -26 19 -52 17 -58 -2 -6 -17 23 -32 63 -36 93 -78 171 -125
  228 -20 25 -30 41 -22 36 10 -5 12 -4 7 4 -4 6 -11 9 -16 6 -4 -3 -27 6 -51
  20 -48 26 -133 49 -123 33 4 -6 -8 -7 -31 -2 -26 5 -36 3 -31 -4 3 -6 2 -13
  -4 -17 -5 -3 -10 -1 -10 4 0 6 -5 11 -11 11 -5 0 -7 -5 -3 -11 4 -7 1 -10 -7
  -7 -8 3 -25 0 -39 -7 -26 -13 -69 -55 -56 -55 4 0 4 -5 0 -11 -5 -8 -9 -8 -14
  1 -5 7 -19 -7 -39 -40 -18 -29 -30 -54 -27 -57 2 -3 14 14 26 37 12 23 24 39
  27 36 9 -9 44 25 37 36 -3 5 0 8 8 6 7 -2 15 2 17 7 5 16 23 35 33 35 5 0 6
  -4 3 -10 -9 -14 8 -13 23 2 15 15 66 20 94 8 19 -7 15 -9 -25 -9 -26 -1 -65
  -10 -85 -20 -51 -26 -122 -104 -163 -179 -29 -53 -38 -62 -59 -60 -19 2 -24 8
  -22 23 2 11 9 23 15 27 7 5 3 8 -11 8 -19 0 -22 -4 -17 -20 4 -11 2 -20 -4
  -20 -6 0 -11 5 -11 11 0 5 -5 7 -10 4 -6 -4 -8 -10 -5 -15 8 -13 -122 -18
  -235 -8 -142 12 -208 26 -219 46 -5 9 -12 62 -15 117 -8 113 -35 347 -41 353
  -2 2 -13 1 -25 -3 -20 -6 -22 -12 -17 -48 3 -23 10 -43 16 -45 7 -2 9 -31 5
  -86 -4 -46 -3 -113 0 -149 7 -62 9 -67 32 -67 20 0 24 -5 24 -31 0 -82 51 -96
  385 -108 168 -6 170 -6 168 -28 -2 -12 -16 -44 -32 -70 -50 -82 -77 -184 -105
  -403 -2 -19 -3 9 -1 63 4 95 2 103 -27 98 -5 0 -8 5 -8 11 0 9 -3 9 -9 -1 -6
  -9 -6 -22 -1 -32 10 -18 4 -29 -18 -29 -8 0 -20 -7 -27 -16 -10 -14 -12 -12
  -12 15 0 21 5 31 16 32 9 0 11 3 5 5 -6 3 -9 17 -7 32 3 23 2 24 -6 7 -6 -12
  -10 -15 -10 -6 -2 33 -10 0 -21 -83 -10 -73 -10 -90 1 -98 11 -8 10 -9 -2 -5
  -15 5 -18 -7 -24 -84 -4 -50 -9 -88 -12 -85 -3 2 0 73 6 158 11 154 13 167 32
  290 l11 67 61 3 62 3 -85 13 c-47 7 -195 40 -328 73 -134 32 -245 59 -246 59
  -2 0 -1 -25 2 -55 5 -64 -5 -128 -19 -119 -7 4 -8 -8 -4 -34 3 -22 2 -43 -3
  -46 -5 -3 -10 35 -11 87 -2 103 -17 266 -25 275 -7 6 -138 3 -145 -4 -2 -2 14
  -21 36 -41 l40 -38 6 -115 c4 -63 4 -109 1 -103 -4 10 -9 9 -20 -2 -9 -8 -12
  -21 -9 -27 4 -7 -1 -4 -10 7 -9 11 -21 19 -26 18 -5 -2 -8 7 -6 20 1 13 -3 21
  -10 19 -15 -2 -17 14 -4 22 5 3 16 -10 26 -30 l17 -36 19 21 c11 12 17 26 13
  33 -5 7 -10 3 -16 -13 -7 -18 -11 -20 -18 -10 -4 8 -6 20 -3 28 3 8 1 13 -5
  11 -6 -2 -18 6 -26 17 -13 16 -15 17 -10 3 6 -17 -5 -23 -29 -19 -5 1 -7 -4
  -4 -11 2 -7 0 -21 -5 -30 -5 -10 -5 -18 0 -18 5 0 9 -6 10 -12 2 -36 13 -89
  23 -114 13 -34 21 -90 12 -81 -10 10 -52 116 -80 197 -13 41 -32 86 -40 99
  l-15 24 -215 -7 c-118 -3 -271 -11 -340 -17 -116 -10 -126 -9 -138 8 -7 10
  -11 21 -9 25 3 4 0 18 -6 30 -11 22 -11 22 8 -1 31 -38 35 -8 6 44 -16 28 -30
  43 -36 37 -12 -12 1 -44 15 -35 6 4 7 1 2 -7 -6 -10 -13 -7 -30 14 -24 30 -40
  25 -24 -8 9 -19 8 -19 -10 3 -12 13 -21 28 -21 35 0 7 4 6 9 -3 7 -11 10 -11
  17 0 4 7 3 14 -4 17 -19 6 -14 22 11 32 21 8 21 9 -5 9 -15 1 -31 -6 -36 -15
  -8 -15 -22 -16 -103 -10 -52 3 -119 10 -149 16 -30 6 -61 11 -67 12 -7 1 -13
  13 -13 27 0 18 3 22 9 13 4 -7 12 -12 17 -11 21 4 28 -2 14 -11 -9 -6 -10 -10
  -3 -10 15 0 21 9 27 43 9 49 17 67 28 61 6 -4 8 -2 5 3 -4 6 -18 8 -33 5 -24
  -4 -26 -3 -19 19 6 20 5 22 -6 12 -18 -18 -37 -16 -42 5 -3 11 -5 9 -6 -8 l-1
  -25 -15 29 c-18 34 -19 39 -4 30 8 -5 10 1 5 19 -7 29 9 81 23 73 5 -3 11 4
  14 16 4 12 9 20 12 16 3 -3 1 -17 -4 -32 -6 -14 -7 -26 -2 -26 5 0 14 14 20
  30 5 17 17 30 27 30 9 0 14 -6 11 -12 -13 -37 -14 -57 0 -25 14 33 20 37 52
  37 20 0 134 3 254 7 l217 6 -15 -36 c-18 -45 -19 -84 0 -117 7 -14 10 -29 5
  -35 -10 -12 21 -18 106 -19 50 -1 68 4 102 27 80 53 124 163 90 227 -19 35
  -75 70 -113 70 -39 0 -129 -44 -153 -75 -18 -23 -26 -24 -151 -27 -125 -3
  -131 -2 -132 17 0 18 -1 18 -9 -2 -9 -22 -15 -23 -120 -23 -101 0 -111 2 -106
  18 3 9 8 28 11 42 7 31 45 60 45 35 0 -8 5 -15 11 -15 6 0 8 10 5 23 -3 12 -3
  16 0 10 9 -20 23 -15 17 6 -3 14 -14 18 -41 18 l-37 -1 0 57 c0 31 -3 57 -7
  57 -5 0 -8 4 -8 9 0 5 21 10 48 10 26 0 130 0 232 0 243 1 436 -5 450 -14 13
  -8 193 -7 310 3 134 11 181 2 261 -53 l69 -47 76 7 c68 6 75 9 72 27 -5 31
  -45 56 -128 78 l-75 20 130 -3 c72 -2 117 0 100 4 -16 4 -57 14 -90 23 -33 8
  -91 24 -130 35 -38 12 -81 24 -95 26 -50 9 -165 44 -147 44 9 1 17 4 17 9 0 4
  71 4 157 0 87 -3 173 -6 192 -7 l34 -1 -23 -25 c-17 -18 -32 -24 -54 -22 -17
  2 -42 0 -56 -4 -24 -7 -24 -7 -2 -8 12 -1 25 -1 28 0 4 0 10 -5 14 -11 8 -13
  87 31 96 54 5 14 127 106 140 106 5 0 54 34 109 75 172 129 430 247 660 301
  91 22 117 23 290 20 137 -3 207 -9 250 -21z m-965 -110 c0 -11 -59 -33 -83
  -31 -15 2 -24 -1 -21 -6 3 -5 13 -7 21 -4 8 3 12 2 9 -3 -3 -5 -27 -8 -53 -7
  -36 2 -58 -4 -88 -23 -22 -14 -43 -30 -47 -35 -3 -5 -23 -10 -45 -12 -21 -2
  -40 -3 -43 -4 -3 0 2 -5 10 -10 12 -7 11 -9 -5 -8 -29 0 -147 -12 -168 -18
  -10 -3 -24 -1 -31 5 -16 13 -106 3 -106 -11 0 -6 -11 -7 -25 -4 -18 5 -27 2
  -32 -9 -4 -11 -13 -15 -29 -11 -12 3 -24 1 -26 -4 -2 -7 -29 -7 -82 0 -83 10
  -149 4 -111 -11 13 -5 14 -8 5 -8 -8 0 -23 4 -34 8 -13 5 14 16 95 39 169 47
  200 54 207 48 3 -3 -9 -9 -27 -12 l-33 -7 38 -13 c21 -7 40 -11 43 -8 3 3 -5
  7 -17 11 l-22 5 23 19 c28 22 275 71 364 73 34 0 55 4 45 7 -9 4 15 9 53 13
  39 4 99 13 135 20 83 17 80 17 80 11z m986 -45 c27 -18 50 -27 61 -23 12 5 15
  2 11 -9 -7 -16 1 -25 79 -80 51 -37 83 -62 131 -105 l24 -22 -38 -36 c-41 -37
  -62 -43 -82 -23 -9 9 -12 9 -12 0 0 -7 -16 -12 -40 -12 -22 0 -40 4 -40 9 0 5
  -16 4 -37 -2 -28 -9 -37 -9 -41 1 -2 7 -12 12 -22 12 -10 0 -21 4 -24 9 -7 10
  -82 9 -92 -2 -13 -13 -24 -7 -35 16 -9 21 -9 21 -6 -4 2 -15 -2 -34 -8 -43
  -11 -15 -13 -15 -19 -1 -3 9 -2 13 4 10 15 -9 12 23 -6 61 -9 19 -20 31 -26
  28 -5 -3 -3 -13 6 -23 9 -10 16 -26 16 -37 0 -12 -8 -4 -21 21 -12 22 -35 60
  -52 85 -17 25 -23 39 -13 31 9 -8 24 -28 32 -44 9 -16 18 -26 21 -23 9 8 -39
  75 -58 81 -9 3 -33 31 -54 61 -20 31 -32 53 -26 50 6 -4 11 -2 11 5 0 7 3 10
  6 7 3 -4 20 -2 37 4 27 8 137 20 246 27 13 0 43 -12 67 -29z m-3157 -512 c9
  -26 9 -29 -4 -18 -8 7 -15 19 -15 27 0 8 -4 12 -9 8 -6 -3 -4 -20 5 -41 8 -20
  13 -41 10 -47 -2 -7 -5 -4 -5 6 -1 9 -6 17 -12 17 -6 0 -9 -10 -7 -23 4 -18 0
  -23 -15 -22 -10 1 -23 8 -28 16 -7 11 -9 11 -9 1 0 -7 -5 -10 -12 -6 -7 4 -8
  3 -4 -5 4 -6 13 -8 19 -5 7 4 8 3 4 -2 -4 -4 -18 -9 -30 -9 -12 0 -32 -6 -44
  -13 -20 -11 -22 -10 -16 5 4 12 -1 9 -15 -7 l-21 -25 -1 24 0 24 -19 -22 c-13
  -15 -21 -18 -26 -10 -6 8 -10 7 -16 -2 -7 -12 -9 -12 -9 0 0 11 -3 11 -15 1
  -11 -9 -15 -9 -15 -1 0 7 -5 9 -12 4 -19 -11 -31 -12 -77 -3 -28 5 -41 4 -41
  -4 0 -6 -5 -4 -10 4 -9 13 -10 13 -11 0 -1 -8 -1 -22 0 -30 1 -11 -1 -11 -9 3
  -6 9 -8 23 -5 30 4 6 0 4 -8 -5 -8 -10 -17 -15 -20 -12 -3 3 -4 -5 -1 -18 3
  -18 1 -17 -10 7 -9 17 -16 23 -16 15 -2 -24 -19 21 -19 50 0 23 1 23 9 5 7
  -17 9 -17 9 -3 1 17 50 44 94 53 9 2 25 11 34 20 8 9 27 15 42 13 14 -1 32 1
  39 6 15 9 162 23 249 23 60 0 62 -1 72 -29z m-726 -64 c-5 -13 -3 -14 13 -6
  17 9 19 6 21 -36 3 -43 -1 -51 -42 -97 -25 -27 -48 -61 -52 -75 -3 -14 -10
  -30 -14 -36 -5 -6 -12 -31 -15 -55 -5 -36 -2 -49 16 -71 24 -32 46 -35 78 -12
  21 14 22 14 22 -10 0 -13 3 -32 6 -40 6 -17 -29 -17 -261 -1 -22 2 -47 4 -55
  4 -15 1 -66 98 -57 107 2 3 10 -9 17 -26 7 -16 17 -30 22 -30 7 0 6 5 -1 13
  -6 8 -8 17 -4 20 3 4 -2 17 -13 29 -10 12 -14 18 -7 15 7 -5 14 4 19 25 7 34
  55 151 59 146 8 -9 -24 -123 -34 -120 -8 2 -11 -21 -9 -78 2 -44 4 -76 6 -70
  2 5 13 5 27 0 15 -6 25 -5 27 1 2 5 13 11 25 12 12 0 20 3 18 5 -3 3 9 22 26
  43 28 36 48 86 30 74 -16 -9 -20 24 -8 66 7 23 23 49 36 57 23 16 24 16 17 -8
  -5 -20 -3 -19 9 5 17 36 19 65 4 65 -5 0 -8 4 -5 9 4 5 2 21 -3 34 -9 24 -8
  26 29 32 22 4 42 11 46 16 9 15 14 10 7 -7z m134 -221 c-6 -31 1 -55 14 -47 5
  3 9 1 9 -5 0 -5 -5 -11 -12 -13 -7 -3 -8 -10 -4 -17 7 -11 10 -11 17 0 7 11 9
  9 10 -6 l0 -20 9 20 c8 18 9 18 10 -5 1 -23 2 -23 10 -5 7 17 9 17 9 3 1 -11
  6 -15 16 -12 8 4 15 2 15 -4 0 -6 18 -9 43 -7 23 2 48 -2 56 -8 12 -10 14 -9
  8 6 -8 21 -3 22 17 1 10 -10 16 -11 16 -3 0 9 4 8 15 -1 12 -10 15 -10 15 1 0
  11 2 11 10 -1 6 -10 10 -11 10 -2 0 6 9 12 20 12 12 0 20 -7 20 -17 0 -15 2
  -14 15 3 13 17 14 17 15 2 0 -20 20 -25 21 -5 0 9 2 9 6 0 3 -9 11 -8 29 4 23
  15 24 14 17 -2 -4 -13 -3 -16 5 -11 7 4 15 1 18 -8 3 -8 12 -12 21 -9 13 5 13
  2 -1 -25 -9 -17 -20 -34 -26 -37 -13 -8 -13 -25 0 -25 6 0 10 7 10 15 0 8 5
  15 10 15 6 0 10 6 10 14 0 8 7 17 16 20 10 4 14 12 9 24 -4 11 -3 14 4 7 20
  -21 23 -61 5 -76 -16 -13 -16 -12 -5 9 7 13 10 26 7 29 -7 8 -27 -7 -21 -17 3
  -4 -2 -11 -11 -14 -10 -4 -14 -12 -10 -22 5 -13 1 -15 -19 -12 -15 3 -29 0
  -33 -8 -9 -17 -123 -32 -214 -28 -39 1 -65 -2 -62 -7 3 -6 -19 -7 -53 -4 l-58
  6 34 -15 c18 -9 51 -16 72 -16 24 0 39 -5 39 -12 0 -9 3 -8 10 2 18 29 22 -1
  10 -85 -7 -47 -10 -88 -7 -91 3 -3 10 33 17 80 l12 86 32 -1 c24 0 27 -2 12
  -8 -12 -5 -20 -18 -20 -34 -2 -36 21 -35 27 1 2 15 2 -39 -1 -121 l-5 -147
  269 2 269 3 3 25 c1 14 5 36 8 49 l5 24 15 -28 c8 -15 14 -34 14 -42 0 -8 5
  -11 10 -8 6 3 10 -2 11 -12 0 -10 6 0 14 22 12 38 13 39 13 10 1 -37 -9 -59
  -26 -63 -7 -1 -163 -3 -347 -4 -184 0 -354 -4 -379 -8 l-45 -7 -26 76 c-15 42
  -33 90 -41 106 -7 17 -24 59 -37 94 -13 35 -26 60 -29 55 -3 -5 -1 -20 5 -34
  5 -14 11 -31 13 -37 5 -24 -7 -13 -21 20 -14 31 -14 30 -9 -31 3 -35 9 -74 14
  -87 5 -14 5 -25 0 -27 -5 -2 0 -32 11 -68 27 -87 19 -111 -9 -30 -13 36 -33
  85 -44 109 -11 25 -21 56 -22 70 -3 24 -6 25 -82 28 -43 2 -117 8 -164 13 -47
  5 -91 10 -97 10 -7 0 -13 5 -13 11 0 9 118 6 180 -6 8 -2 50 -6 92 -10 71 -6
  77 -5 88 15 14 25 3 91 -11 69 -7 -11 -11 -8 -16 10 -6 23 -7 24 -14 5 -7 -16
  -8 -17 -8 -1 -1 19 -21 24 -21 5 -1 -7 -7 -2 -16 12 -14 23 -14 23 -9 3 4 -14
  2 -23 -4 -23 -6 0 -11 6 -12 13 0 8 -2 8 -6 -2 -5 -11 -7 -11 -14 0 -6 10 -9
  11 -9 2 0 -7 -11 -13 -24 -13 -14 0 -28 -5 -32 -12 -5 -8 -10 -6 -15 8 -7 19
  -8 19 -8 0 -1 -19 -2 -19 -14 -2 -8 11 -29 19 -60 21 -47 3 -79 15 -42 15 15
  0 16 3 7 12 -7 7 -12 16 -12 20 0 8 227 5 380 -6 57 -4 78 -3 65 3 -11 5 -39
  10 -61 10 l-42 1 -4 56 c-4 50 -2 58 24 86 30 33 36 51 14 42 -8 -3 -17 0 -21
  6 -4 7 1 14 14 17 17 4 19 9 10 24 -6 12 -15 17 -22 12 -9 -5 -9 -3 0 9 7 8 9
  19 5 23 -4 5 1 5 10 2 10 -3 20 -2 23 3 4 6 13 10 22 10 11 0 14 -7 10 -27z
  m560 -403 c17 -10 37 -28 43 -40 6 -12 16 -18 23 -13 9 5 9 3 0 -9 -7 -8 -10
  -18 -6 -21 9 -9 -10 -8 -22 1 -6 4 -17 20 -25 35 -23 45 -45 52 -147 44 -13
  -1 -23 -5 -23 -9 0 -4 -9 -17 -20 -28 -11 -11 -20 -32 -20 -47 l0 -28 20 30
  c18 27 27 23 21 -9 -1 -5 7 -18 17 -30 29 -32 35 -47 19 -40 -8 3 -17 14 -20
  25 -6 24 -27 25 -27 1 0 -22 42 -47 65 -38 15 5 14 9 -5 37 l-22 30 27 29 c19
  20 26 35 22 50 -4 16 -1 20 11 18 27 -5 25 -41 -3 -68 -14 -13 -25 -31 -25
  -41 0 -43 59 -42 71 2 l7 24 1 -25 c1 -15 6 -31 13 -38 18 -18 -56 -45 -110
  -39 -77 8 -123 61 -108 122 8 33 58 82 89 88 54 11 104 6 134 -13z m4933 -66
  c0 -8 5 -14 11 -14 8 0 8 -4 2 -12 -6 -7 -13 -58 -16 -113 -6 -116 -41 -227
  -82 -262 -41 -36 -56 -27 -20 12 40 42 62 104 74 210 4 44 8 81 7 82 -2 3
  -182 23 -208 23 -17 0 -28 -6 -30 -17 -3 -13 -6 -10 -10 9 -4 23 -2 27 16 25
  15 -1 21 4 21 18 0 27 23 33 128 34 72 1 87 4 87 17 0 8 5 12 10 9 6 -3 10
  -13 10 -21z m-3058 -29 c20 -8 40 -20 43 -25 4 -6 4 -38 0 -71 -6 -54 -9 -59
  -31 -59 -13 0 -24 5 -24 11 0 12 -38 49 -50 49 -12 0 -19 54 -8 67 6 8 5 19
  -2 34 -11 20 -10 21 12 16 13 -4 40 -13 60 -22z m2292 -179 c-12 -32 -61 -42
  -449 -90 -314 -39 -315 -39 -315 -28 0 12 13 17 115 47 114 33 356 87 500 112
  16 3 45 11 65 17 33 13 36 12 62 -17 14 -16 24 -35 22 -41z m-1138 -208 c-5
  -97 -12 -134 -39 -217 -34 -100 -91 -194 -114 -186 -6 2 -19 -3 -30 -11 -17
  -14 -16 -14 7 -4 24 11 24 10 5 -5 -24 -19 -107 -11 -150 16 l-30 19 30 0
  c111 1 192 158 201 390 3 69 7 141 10 160 l6 35 14 -25 c8 -15 13 -56 14 -102
  0 -63 -3 -79 -17 -88 -13 -8 -14 -13 -5 -16 6 -3 12 -18 12 -33 0 -42 -39
  -171 -68 -225 -29 -53 -86 -106 -114 -106 -10 0 -18 -4 -18 -10 0 -14 35 -12
  73 4 104 43 168 206 171 438 1 64 5 120 9 124 4 4 7 19 8 33 1 18 5 11 15 -24
  11 -37 14 -80 10 -167z m-425 126 c-29 -13 -59 -24 -65 -24 -18 0 -36 -22 -36
  -44 0 -26 161 -178 174 -165 5 5 12 60 14 124 3 63 8 112 13 109 5 -3 9 -15 9
  -27 0 -16 3 -18 9 -9 7 11 9 11 14 -2 3 -8 2 -18 -4 -22 -6 -3 -7 -19 -4 -35
  4 -18 3 -29 -4 -29 -6 0 -11 5 -11 12 0 6 -3 8 -7 4 -5 -4 0 -13 10 -21 14
  -10 15 -18 8 -38 -5 -14 -7 -28 -3 -31 3 -4 -4 -14 -17 -22 -21 -15 -21 -17
  -5 -42 9 -15 28 -40 43 -56 14 -16 20 -26 13 -22 -8 5 -16 -2 -22 -18 -16 -42
  -50 -31 -57 19 -2 16 -1 17 6 5 5 -8 7 -18 4 -24 -3 -5 -1 -6 5 -3 5 4 9 15 7
  25 -2 9 -4 23 -4 30 -1 7 -5 11 -10 8 -13 -8 -34 21 -26 35 5 7 0 7 -16 -1
  -24 -13 -24 -13 -5 9 18 20 13 27 -17 22 -5 -1 -6 3 -3 8 7 11 -72 84 -83 76
  -5 -2 -12 3 -15 13 -3 9 -13 28 -21 42 -20 34 -19 66 3 74 41 15 138 44 147
  44 6 1 -14 -10 -44 -24z m1889 -73 c0 -7 -98 -25 -247 -45 -13 -2 -23 1 -23 5
  0 5 -15 8 -32 8 l-33 -1 30 -8 c17 -4 27 -8 22 -9 -4 0 -193 -26 -419 -56
  -226 -31 -454 -62 -506 -71 -52 -8 -96 -13 -99 -10 -9 9 221 66 268 66 11 0
  18 -4 15 -8 -2 -4 127 9 287 30 161 20 316 40 345 44 79 10 62 23 -25 19 -62
  -4 -70 -3 -38 5 22 4 87 11 145 15 144 10 304 22 308 24 1 0 2 -3 2 -8z
  m-4212 -262 c261 -3 321 -21 114 -34 -57 -3 -110 -9 -118 -12 -12 -4 -13 -24
  -10 -109 5 -110 -7 -134 -18 -37 -14 121 -19 144 -33 158 -11 12 -43 15 -138
  15 -68 0 -126 4 -130 9 -8 15 24 20 95 16 36 -3 143 -5 238 -6z m1510 -179
  c45 -11 99 -29 120 -40 l37 -21 -45 5 c-25 3 -106 9 -181 12 l-137 7 10 29 c9
  26 14 28 61 28 29 0 89 -9 135 -20z"/>
  <path id="background2" d="M3135 2741 c-87 -23 -143 -68 -184 -146 -28 -52 -28 -138 -1 -182 35
  -59 121 -87 212 -71 74 13 127 47 178 114 36 46 44 65 46 104 3 64 -5 93 -23
  86 -10 -4 -13 -1 -9 12 16 51 -132 106 -219 83z m167 -130 c10 -9 20 -30 24
  -47 5 -26 0 -38 -27 -68 -18 -21 -38 -35 -45 -32 -8 3 -14 1 -14 -5 0 -17 -72
  -1 -94 21 -24 23 -25 70 -2 105 34 52 117 66 158 26z"/>
  </g><!-- end secondary content -->
</svg>
	